<svg width="16" height="22" viewBox="0 0 16 22" fill="none" xmlns="http://www.w3.org/2000/svg">
<path fill-rule="evenodd" clip-rule="evenodd" d="M2.18182 9.3333C1.20406 9.3333 1 9.5252 1 10.4444V12.1111C1 13.0304 1.20406 13.2222 2.18182 13.2222H4.54545V19.8889C4.54545 20.8081 4.74951 21 5.72727 21H8.0909C9.0687 21 9.2727 20.8081 9.2727 19.8889V13.2222H11.9267C12.6683 13.2222 12.8594 13.0867 13.0631 12.4164L13.5696 10.7497C13.9185 9.6014 13.7035 9.3333 12.4332 9.3333H9.2727V6.55556C9.2727 5.94191 9.8018 5.44444 10.4545 5.44444H13.8182C14.7959 5.44444 15 5.25259 15 4.33333V2.11111C15 1.19185 14.7959 1 13.8182 1H10.4545C7.191 1 4.54545 3.48731 4.54545 6.55556V9.3333H2.18182Z" stroke="#141B34" stroke-width="1.5" stroke-linejoin="round"/>
</svg>
