<svg width="22" height="22" viewBox="0 0 22 22" fill="none" xmlns="http://www.w3.org/2000/svg">
<path d="M3.5 8.5H3C2.05719 8.5 1.58579 8.5 1.29289 8.79289C1 9.0858 1 9.5572 1 10.5V19C1 19.9428 1 20.4142 1.29289 20.7071C1.58579 21 2.05719 21 3 21H3.5C4.44281 21 4.91421 21 5.20711 20.7071C5.5 20.4142 5.5 19.9428 5.5 19V10.5C5.5 9.5572 5.5 9.0858 5.20711 8.79289C4.91421 8.5 4.44281 8.5 3.5 8.5Z" stroke="#141B34" stroke-width="1.5"/>
<path d="M5.5 3.25C5.5 4.49264 4.49264 5.5 3.25 5.5C2.00736 5.5 1 4.49264 1 3.25C1 2.00736 2.00736 1 3.25 1C4.49264 1 5.5 2.00736 5.5 3.25Z" stroke="#141B34" stroke-width="1.5"/>
<path d="M11.326 8.5H10.5C9.5572 8.5 9.0858 8.5 8.79289 8.79289C8.5 9.0858 8.5 9.5572 8.5 10.5V19C8.5 19.9428 8.5 20.4142 8.79289 20.7071C9.0858 21 9.5572 21 10.5 21H11C11.9428 21 12.4142 21 12.7071 20.7071C13 20.4142 13 19.9428 13 19L13.0001 15.5001C13.0001 13.8433 13.5281 12.5001 15.0879 12.5001C15.8677 12.5001 16.5 13.1717 16.5 14.0001V18.5001C16.5 19.4429 16.5 19.9143 16.7929 20.2072C17.0857 20.5001 17.5572 20.5001 18.5 20.5001H18.9987C19.9413 20.5001 20.4126 20.5001 20.7055 20.2073C20.9984 19.9145 20.9985 19.4432 20.9987 18.5006L21.0001 13.0002C21.0001 10.515 18.6364 8.50024 16.2968 8.50024C14.9649 8.50024 13.7767 9.1531 13.0001 10.174C13 9.5439 13 9.2289 12.8632 8.995C12.7765 8.84686 12.6531 8.72353 12.505 8.63687C12.2711 8.5 11.9561 8.5 11.326 8.5Z" stroke="#141B34" stroke-width="1.5" stroke-linejoin="round"/>
</svg>
